PathFileType	4	(X/Y/Z)	C:/Users/beibeiliu/ov580/test_trc/User2\sequence.36_training_dense_right.trc
DataRate	CameraRate	NumFrames	NumMarkers	Units	OrigDataRate	OrigDataStartFrame	OrigNumFrames
120	120	8	19	mm	120	313	500
Frame#	Time	ThumbCMC			ThumbMCP			ThumbIP			ThumbTip			IndexMCP			IndexPIP			IndexTip			MiddleMCP			MiddlePIP			MiddleTip			RingMCP			RingPIP			RingTip			PinkyMCP			PinkyPIP			PinkyTip			BackHand1			BackHand2			BackHand3	
		X0	Y0	Z0	X1	Y1	Z1	X2	Y2	Z2	X3	Y3	Z3	X4	Y4	Z4	X5	Y5	Z5	X6	Y6	Z6	X7	Y7	Z7	X8	Y8	Z8	X9	Y9	Z9	X10	Y10	Z10	X11	Y11	Z11	X12	Y12	Z12	X13	Y13	Z13	X14	Y14	Z14	X15	Y15	Z15	X16	Y16	Z16	X17	Y17	Z17	X18	Y18	Z18	
312	2.6	115.472	-5.99518	63.5003	112.051	14.6226	39.1203	96.2304	33.2861	11.0134	73.8064	40.4917	-3.65446	63.0277	-21.2833	-6.88453	44.29	-17.6458	-26.4456	26.6953	-12.7476	-43.5131	37.7281	-40.6363	3.81651	11.8815	-34.9915	-13.0686	-13.9272	-30.2574	-27.4675	20.7369	-49.5612	20.3147	1.50587	-41.8908	8.15526	-22.1717	-33.4988	-10.3057	18.8034	-56.227	42.8852	-2.07602	-48.1351	29.7369	-24.6502	-45.5391	14.7458	69.8752	-66.8081	62.0311	92.1374	-65.9152	81.7518	103.425	-43.3718	51.5521	
313	2.60833	112.882	-7.19778	61.1727	113.509	16.5949	38.2563	97.8293	33.7636	11.3321	77.4648	44.0331	-5.78393	61.7166	-23.7757	-3.55024	46.2415	-14.5862	-27.7597	27.1173	-11.3033	-45.2172	33.9594	-43.2949	5.81505	9.89188	-35.3746	-10.8111	-14.6431	-29.8169	-27.8938	22.2426	-52.2861	24.1532	0.864421	-44.3736	9.4226	-21.1859	-36.0163	-7.15493	17.1281	-56.7339	43.9118	-2.76513	-48.2426	28.4559	-22.2749	-47.8618	17.3864	68.5249	-63.1643	58.6201	91.6731	-69.5588	87.5881	101.352	-44.6702	54.4634	
314	2.61667	117.801	-5.02759	62.9789	112.442	15.1608	40.7466	93.7885	31.2115	10.3766	77.0742	42.3638	-5.68156	62.1593	-21.5577	-7.08145	48.3329	-14.7029	-26.2398	26.6795	-10.2025	-44.8242	35.9933	-41.0684	4.75185	9.08975	-32.8911	-13.8272	-15.8616	-30.6607	-24.5112	21.6401	-50.8087	22.3907	2.89116	-42.7192	8.45295	-21.0842	-35.2669	-10.02	21.2544	-55.5269	44.8989	-1.31341	-49.0381	30.1396	-18.8275	-45.7264	14.0316	66.7696	-65.0086	60.3075	92.2798	-65.1631	83.1014	102.928	-42.2992	53.745	
315	2.625	115.925	-6.79058	65.2629	112.804	15.4494	41.1542	95.8598	31.8358	13.5218	80.3596	45.4167	-5.46529	62.5721	-21.9849	-4.54256	47.0237	-16.7141	-23.6656	26.556	-7.9065	-48.5505	38.7013	-40.0894	5.27262	9.25389	-34.5937	-11.8158	-13.1574	-26.791	-26.9327	19.9994	-51.6154	21.1971	3.18773	-44.6634	9.38293	-20.7281	-36.6177	-10.8065	17.5507	-57.721	43.0074	-2.00703	-49.6676	29.6985	-24.383	-47.9974	14.5937	68.7181	-64.4541	58.9885	92.167	-66.5868	85.6971	102.378	-44.5282	52.6069	
316	2.63333	117.094	-6.19238	64.5949	110.369	14.169	39.8161	98.5681	33.2995	14.7954	79.2804	44.8921	-4.71828	63.6386	-18.8244	-7.53381	47.2042	-12.172	-28.4323	26.3891	-8.28928	-46.4161	38.6943	-38.3445	2.95463	13.9543	-34.6145	-10.9442	-14.9794	-29.7443	-26.4805	22.9283	-49.828	20.6209	1.26554	-46.6434	7.98422	-23.6539	-40.9828	-9.40426	18.0864	-57.3112	42.7307	0.324639	-52.6006	31.7923	-22.8879	-50.3711	15.2882	71.7908	-64.2961	62.733	94.8411	-68.7376	86.7908	103.766	-42.0378	51.7873	
317	2.64167	114.26	-4.94088	62.5283	112.292	16.8529	36.4684	95.5954	34.6969	9.54237	76.4254	40.8513	-1.90898	64.3247	-20.1927	-6.81791	49.2905	-14.4377	-25.486	30.3836	-7.27591	-44.4958	36.3278	-40.8101	2.05706	10.8665	-36.0322	-11.6605	-15.5991	-29.7985	-28.1182	28.2614	-49.9979	21.272	0.484702	-47.1427	6.37605	-21.6275	-39.7024	-11.4478	19.8606	-59.2565	44.6391	-0.121732	-52.8281	30.3754	-18.594	-47.4097	13.6715	68.6533	-65.8676	59.3329	92.4761	-69.389	84.8508	101.726	-41.4701	52.9088	
318	2.65	113.795	-4.33604	61.2671	112.269	17.8573	41.3144	93.4539	34.8467	12.5638	75.3872	43.6407	-0.480467	63.7979	-19.9422	-5.59121	46.1327	-13.3567	-26.8235	27.1421	-6.45373	-46.9582	37.9552	-41.1288	2.53964	15.906	-34.1558	-14.1084	-13.8389	-29.9572	-32.2504	27.3909	-52.1385	21.5267	3.77574	-46.7082	2.69497	-18.5424	-40.6489	-15.2725	20.4508	-60.2621	43.5483	-0.98485	-56.7129	31.0749	-17.8569	-50.3735	12.2213	73.0227	-61.3415	58.6126	92.7483	-65.6007	83.2089	100.534	-42.1874	54.0275	
319	2.65833	115.294	-0.792955	67.0098	108.717	20.1952	41.9386	92.3259	38.021	15.2595	73.7487	48.5748	0.668147	64.7047	-17.8653	-2.62716	48.7255	-9.89763	-23.645	29.4405	0.684947	-47.4757	43.703	-37.7271	1.84322	15.6158	-32.8068	-18.3516	-7.6632	-28.2296	-33.2878	28.4118	-50.6611	15.0201	5.82671	-50.9631	3.29571	-18.2575	-44.6349	-16.3214	23.6775	-60.5157	43.8943	2.10535	-57.3308	29.2379	-14.4754	-54.4765	12.0247	73.5063	-61.1317	57.2289	94.8023	-67.344	85.0439	102.88	-39.5357	55.1998	
